<?xml version="1.0" encoding="UTF-8"?>
<svg width="312px" height="57px" viewBox="0 0 312 57" version="1.1" xmlns="http://www.w3.org/2000/svg" xmlns:xlink="http://www.w3.org/1999/xlink">
    <title>LabTwin</title>
    <g id="Page-1" stroke="none" stroke-width="1" fill="none" fill-rule="evenodd">
        <g id="LabTwin" fill-rule="nonzero">
            <polygon id="Path" fill="#2B3890" points="89.3 6 88.7 6.6 88.7 48.8 89.3 49.4 114.7 49.4 115.3 48.8 115.3 42.6 114.7 41.9 98 41.9 97.4 41.3 97.4 6.6 96.8 6"></polygon>
            <g id="Group" transform="translate(184.000000, 6.000000)" fill="#5A68C7">
                <polygon id="Path" points="1.1 0 0.5 0.6 0.5 6.8 1.1 7.4 11.7 7.4 12.3 8.1 12.3 42.8 12.9 43.4 20.4 43.4 21 42.8 21 8.1 21.6 7.4 32.2 7.4 32.8 6.8 32.8 0.6 32.2 1.77635684e-15"></polygon>
                <polygon id="Path" points="76.8 19.2 69.4 42.8 68.8 43.4 60.7 43.4 60.1 42.8 55.1 24.2 54.5 24.2 49.6 42.8 48.9 43.4 40.9 43.4 40.3 42.8 32.8 19.2 32.8 13 33.5 12.4 39 12.4 39.7 13 44.6 30.4 45.2 30.4 50.2 13 50.8 12.4 58.9 12.4 59.5 13 64.4 30.4 65.1 30.4 70 13 70.6 12.4 76.2 12.4 76.8 13"></polygon>
                <path d="M83.8,0 L83.2,0.6 L83.2,6.8 L83.8,7.4 L91.2,7.4 L91.8,6.8 L91.8,0.6 L91.2,0 L83.8,0 Z M83.8,12.4 L83.2,13 L83.2,42.8 L83.8,43.4 L91.2,43.4 L91.8,42.8 L91.8,13 L91.2,12.4 L83.8,12.4 Z" id="Shape"></path>
                <path d="M127.7,42.8 L127.1,43.4 L119.7,43.4 L119.1,42.8 L119.1,24.8 C119.1,21.1 117.5,19.2 114.1,19.2 C109.6,19.2 107.7,21.9 107.7,27.3 L107.7,42.8 L107.1,43.4 L99.7,43.4 L99.1,42.8 L99.1,13 L99.7,12.4 L107.1,12.4 L107.9,13 L107.9,14.9 C110,12.8 112.7,11.8 116,11.8 C119.7,11.8 122.6,12.9 124.6,15.2 C126.7,17.4 127.7,20.5 127.7,24.2 L127.7,42.8 Z" id="Path"></path>
            </g>
            <path d="M148.8,18.4 L142,18.4 L141.4,19 L141.4,20.9 C139.1,18.9 136.3,17.7 133.3,17.7 C125.8,17.7 119.7,25 119.7,33.9 C119.7,42.8 125.8,50.1 133.3,50.1 C136.3,50.1 139.1,48.9 141.4,46.9 L141.3,46.9 L141.3,48.8 L141.9,49.4 L148.7,49.4 L149.3,48.8 L149.3,32 L149.4,19 L148.8,18.4 Z M135.1,42.6 C130.6,42.6 128.3,39.7 128.3,33.9 C128.3,28.1 130.6,25.2 135.1,25.2 C139.6,25.2 141.9,28.1 141.9,33.9 C141.9,39.7 139.6,42.6 135.1,42.6 Z" id="Shape" fill="#2B3890"></path>
            <path d="M173.6,17.7 C170.6,17.7 167.8,18.9 165.5,20.9 L165.5,6.7 L164.9,6.1 L157.5,6.1 L156.9,6.7 L156.9,48.9 L157.5,49.5 L164.9,49.5 L165.5,48.9 L165.5,47 L165.6,47 C167.8,48.9 170.6,50.1 173.6,50.1 C181.1,50.1 187.2,42.8 187.2,33.9 C187.2,24.9 181.1,17.7 173.6,17.7 Z M171.7,42.7 C167.2,42.7 165.4,39.8 165.4,34 C165.4,28.2 167.2,25.3 171.7,25.3 C176.2,25.3 178.5,28.2 178.5,34 C178.5,39.8 176.2,42.7 171.7,42.7 Z" id="Shape" fill="#2B3890"></path>
            <polyline id="Path" fill="#2B3890" points="31 18.6 14.8 28.1 0 19.6 0 18.5 31 0.1 32.2 0.1 63.3 18.5 63.3 19.6 63.4 19.6 48.6 28.3 32.2 18.6"></polyline>
            <polyline id="Path" fill="#5A68C7" points="31 37.5 14.8 28.1 0 36.5 0 37.7 31 56.1 32.2 56.1 63.3 37.7 63.3 36.5 63.4 36.5 48.6 27.9 32.2 37.5"></polyline>
        </g>
    </g>
</svg>